<?xml version="1.0" standalone="no"?>
<!DOCTYPE svg PUBLIC "-//W3C//DTD SVG 20010904//EN"
 "http://www.w3.org/TR/2001/REC-SVG-20010904/DTD/svg10.dtd">
<svg version="1.0" xmlns="http://www.w3.org/2000/svg"
 width="710.000000pt" height="710.000000pt" viewBox="0 0 710.000000 710.000000"
 preserveAspectRatio="xMidYMid meet">
<metadata>
Created by potrace 1.14, written by Peter Selinger 2001-2017
</metadata>
<g transform="translate(0.000000,710.000000) scale(0.100000,-0.100000)"
fill="#000000" stroke="none">
<path d="M3398 7095 c-2 -1 -46 -5 -98 -8 -52 -3 -129 -11 -170 -17 -41 -5
-93 -13 -115 -16 -43 -5 -124 -20 -165 -29 -14 -3 -47 -10 -75 -15 -27 -6 -75
-17 -105 -26 -30 -9 -63 -18 -73 -20 -9 -1 -84 -25 -165 -53 -366 -123 -717
-308 -1017 -535 -84 -64 -90 -69 -170 -137 -617 -526 -1046 -1284 -1181 -2089
-3 -14 -6 -36 -9 -50 -3 -14 -7 -47 -11 -75 -3 -27 -8 -58 -10 -68 -24 -131
-24 -654 1 -817 2 -14 7 -45 10 -70 29 -210 119 -587 155 -652 6 -10 10 -23
10 -30 0 -22 112 -290 170 -408 64 -129 207 -373 221 -378 5 -2 9 -8 9 -13 0
-14 136 -201 224 -308 106 -128 336 -356 467 -464 336 -274 724 -488 1134
-625 112 -38 312 -93 380 -106 183 -33 258 -45 300 -50 28 -3 73 -8 100 -11
127 -15 488 -21 580 -11 17 2 64 7 105 10 41 4 86 9 100 11 14 2 45 7 70 10
25 3 72 11 105 16 33 6 71 13 85 15 157 28 489 129 665 204 655 277 1186 710
1579 1287 42 62 76 117 76 123 0 5 5 10 10 10 6 0 10 4 10 9 0 5 25 53 56 107
187 327 329 724 398 1104 15 86 18 107 33 215 10 76 11 761 0 837 -65 491
-213 938 -442 1335 -30 52 -55 96 -55 98 0 11 -211 310 -259 368 -364 436
-751 743 -1219 968 -342 164 -739 283 -1082 325 -19 2 -53 6 -75 9 -109 13
-186 17 -362 19 -106 2 -194 2 -195 1z m327 -2237 c252 -110 445 -241 645
-437 80 -79 180 -192 223 -251 9 -14 36 -52 60 -85 107 -149 226 -369 246
-455 24 -106 5 -183 -95 -378 -187 -363 -474 -656 -884 -902 -185 -112 -274
-144 -385 -143 -75 2 -301 106 -464 215 -254 170 -495 424 -679 715 -54 85
-165 293 -157 293 2 0 0 11 -5 25 -22 58 -22 130 0 196 27 81 79 192 94 201 6
4 7 8 3 8 -5 0 3 21 19 48 194 335 447 591 804 814 292 182 406 209 575 136z"/>
</g>
</svg>
